<svg width="190" height="228" viewBox="0 0 190 228" fill="none" xmlns="http://www.w3.org/2000/svg">
<g filter="url(#filter0_d_7_2370)">
<path d="M76 8.8C76 3.93989 79.9462 -0.0365956 84.7908 0.351801C99.6852 1.54589 114.213 5.76515 127.472 12.7858C143.33 21.182 156.893 33.3301 166.979 48.1708C177.065 63.0115 183.367 80.0941 185.336 97.9292C187.305 115.764 184.881 133.81 178.275 150.494C171.67 167.177 161.084 181.991 147.439 193.645C133.795 205.298 117.507 213.437 99.9958 217.351C82.4845 221.265 64.2815 220.836 46.974 216.101C32.5021 212.142 19.0238 205.273 7.34887 195.948C3.55146 192.915 3.39687 187.314 6.72384 183.772C10.0508 180.229 15.5967 180.092 19.4398 183.066C28.9881 190.458 39.9165 195.924 51.6181 199.125C66.1564 203.102 81.4469 203.463 96.1564 200.175C110.866 196.887 124.548 190.05 136.009 180.261C147.47 170.473 156.363 158.029 161.911 144.015C167.46 130.001 169.496 114.842 167.842 99.8605C166.188 84.8791 160.894 70.5297 152.422 58.0635C143.95 45.5973 132.557 35.3929 119.237 28.3401C108.515 22.6633 96.807 19.167 84.7869 18.0187C79.9488 17.5566 76 13.6601 76 8.8Z" fill="url(#paint0_radial_7_2370)"/>
</g>
<defs>
<filter id="filter0_d_7_2370" x="0.356689" y="0.325562" width="189.643" height="227.674" filterUnits="userSpaceOnUse" color-interpolation-filters="sRGB">
<feFlood flood-opacity="0" result="BackgroundImageFix"/>
<feColorMatrix in="SourceAlpha" type="matrix" values="0 0 0 0 0 0 0 0 0 0 0 0 0 0 0 0 0 0 127 0" result="hardAlpha"/>
<feOffset dy="4"/>
<feGaussianBlur stdDeviation="2"/>
<feComposite in2="hardAlpha" operator="out"/>
<feColorMatrix type="matrix" values="0 0 0 0 0 0 0 0 0 0 0 0 0 0 0 0 0 0 0.25 0"/>
<feBlend mode="normal" in2="BackgroundImageFix" result="effect1_dropShadow_7_2370"/>
<feBlend mode="normal" in="SourceGraphic" in2="effect1_dropShadow_7_2370" result="shape"/>
</filter>
<radialGradient id="paint0_radial_7_2370" cx="0" cy="0" r="1" gradientUnits="userSpaceOnUse" gradientTransform="translate(-3.74999 -93.5) rotate(42.7688) scale(299.687)">
<stop stop-color="white"/>
<stop offset="1" stop-color="#7012CE"/>
</radialGradient>
</defs>
</svg>
