<svg width="39" height="40" viewBox="0 0 39 40" fill="none" xmlns="http://www.w3.org/2000/svg">
<rect width="39" height="40" rx="8" fill="#3D4ABA"/>
<path d="M19.5 18.8281V14.9219" stroke="#FAFAFF" stroke-width="1.4" stroke-linecap="round" stroke-linejoin="round"/>
<path d="M19.5 11.7969V11.0156" stroke="#FAFAFF" stroke-width="1.4" stroke-linecap="round" stroke-linejoin="round"/>
<path d="M13.5967 13.9453L13.0254 13.3594" stroke="#FAFAFF" stroke-width="1.4" stroke-linecap="round" stroke-linejoin="round"/>
<path d="M19.5 22.3438C20.3414 22.3438 21.0234 21.6442 21.0234 20.7812C21.0234 19.9183 20.3414 19.2188 19.5 19.2188C18.6586 19.2188 17.9766 19.9183 17.9766 20.7812C17.9766 21.6442 18.6586 22.3438 19.5 22.3438Z" stroke="#FAFAFF" stroke-width="1.4" stroke-miterlimit="10"/>
<path d="M19.4999 12.1875C17.8427 12.1875 16.2227 12.6915 14.8448 13.6358C13.4669 14.5801 12.393 15.9223 11.7588 17.4926C11.1246 19.0629 10.9587 20.7908 11.282 22.4578C11.6053 24.1248 12.4033 25.6561 13.5751 26.858C14.7469 28.0598 16.2399 28.8783 17.8652 29.2099C19.4906 29.5415 21.1753 29.3713 22.7064 28.7208C24.2374 28.0704 25.546 26.9689 26.4667 25.5557C27.3874 24.1424 27.8788 22.4809 27.8788 20.7813C27.8788 18.502 26.996 16.3162 25.4247 14.7046C23.8533 13.0929 21.7221 12.1875 19.4999 12.1875Z" stroke="#FAFAFF" stroke-width="1.4" stroke-miterlimit="10"/>
</svg>
