<svg width="44" height="44" viewBox="0 0 44 44" fill="none" xmlns="http://www.w3.org/2000/svg">
<circle cx="22" cy="22" r="22" fill="#FFA656"/>
<path d="M31.8906 18.2499C31.6599 18.2424 31.4308 18.2919 31.2238 18.3941C31.0167 18.4963 30.8381 18.648 30.7037 18.8358C30.6923 18.8521 30.676 18.8644 30.6572 18.8709C30.6383 18.8773 30.6179 18.8776 30.5989 18.8716C30.5798 18.8656 30.5632 18.8538 30.5514 18.8377C30.5396 18.8217 30.5332 18.8023 30.5331 18.7824V17.0644C30.5331 16.0917 29.7672 15.2733 28.795 15.2503C28.5574 15.2443 28.3209 15.2859 28.0996 15.3727C27.8783 15.4595 27.6766 15.5897 27.5064 15.7557C27.3362 15.9217 27.201 16.12 27.1086 16.339C27.0163 16.5581 26.9687 16.7934 26.9688 17.0311V20.8749C26.9688 20.8997 26.9589 20.9236 26.9413 20.9411C26.9237 20.9587 26.8999 20.9686 26.875 20.9686H17.125C17.1001 20.9686 17.0763 20.9587 17.0587 20.9411C17.0411 20.9236 17.0312 20.8997 17.0312 20.8749V17.0644C17.0312 16.0917 16.2653 15.2733 15.2931 15.2503C15.0556 15.2446 14.8194 15.2864 14.5983 15.3733C14.3772 15.4602 14.1758 15.5905 14.0058 15.7564C13.8358 15.9223 13.7007 16.1206 13.6085 16.3395C13.5163 16.5584 13.4687 16.7936 13.4688 17.0311V18.7833C13.4687 18.8032 13.4623 18.8226 13.4505 18.8387C13.4387 18.8547 13.422 18.8666 13.403 18.8725C13.384 18.8785 13.3636 18.8782 13.3447 18.8718C13.3259 18.8654 13.3095 18.8531 13.2981 18.8367C13.1637 18.6485 12.9848 18.4965 12.7774 18.3941C12.57 18.2917 12.3405 18.2421 12.1094 18.2499C11.3453 18.2738 10.75 18.9206 10.75 19.6852V24.3127C10.75 25.0772 11.3472 25.7241 12.1094 25.748C12.3401 25.7555 12.5692 25.7059 12.7762 25.6037C12.9833 25.5015 13.1619 25.3498 13.2962 25.162C13.3074 25.1448 13.3239 25.1316 13.3432 25.1246C13.3626 25.1176 13.3836 25.1172 13.4033 25.1234C13.4229 25.1296 13.4399 25.142 13.4517 25.1588C13.4636 25.1756 13.4695 25.1959 13.4688 25.2164V26.9353C13.4688 27.9061 14.2347 28.7264 15.2069 28.7499C15.4444 28.7556 15.6807 28.7138 15.9018 28.6268C16.1229 28.5399 16.3244 28.4096 16.4944 28.2436C16.6644 28.0777 16.7995 27.8793 16.8917 27.6604C16.9839 27.4414 17.0313 27.2062 17.0312 26.9686V23.1249C17.0312 23.1 17.0411 23.0761 17.0587 23.0586C17.0763 23.041 17.1001 23.0311 17.125 23.0311H26.875C26.8999 23.0311 26.9237 23.041 26.9413 23.0586C26.9589 23.0761 26.9688 23.1 26.9688 23.1249V26.9353C26.9688 27.908 27.7347 28.7264 28.7069 28.7494C28.9444 28.7551 29.1806 28.7133 29.4017 28.6264C29.6228 28.5395 29.8242 28.4093 29.9942 28.2433C30.1642 28.0774 30.2993 27.8791 30.3915 27.6602C30.4837 27.4413 30.5313 27.2062 30.5312 26.9686V25.2164C30.5313 25.1965 30.5377 25.1771 30.5495 25.161C30.5613 25.145 30.578 25.1331 30.597 25.1272C30.616 25.1212 30.6364 25.1215 30.6553 25.1279C30.6741 25.1344 30.6905 25.1466 30.7019 25.163C30.8363 25.3512 31.0152 25.5032 31.2226 25.6056C31.43 25.708 31.6595 25.7576 31.8906 25.7499C32.6547 25.7259 33.25 25.0791 33.25 24.3145V19.6861C33.25 18.9216 32.6528 18.2747 31.8906 18.2499Z" fill="white"/>
</svg>
